<svg width="111" height="35" viewBox="0 0 111 35" fill="none" xmlns="http://www.w3.org/2000/svg">
<g clip-path="url(#clip0)">
<path d="M21.9641 31.6145C23.199 30.971 25.8214 30.2016 26.3903 30.0477C26.4596 30.0337 26.5013 29.9637 26.5013 29.8938V8.15389C26.5013 8.06995 26.4319 8 26.3486 8H0.152625C0.069375 8 0 8.06995 0 8.15389V29.4881C0 29.558 0.0555 29.628 0.124875 29.642C1.3875 29.8658 11.9464 31.7824 14.2219 32.2301C15.6094 32.4959 18.4676 33.0554 19.2446 34.7202C19.2863 34.7902 19.3834 34.8181 19.4528 34.7762C19.4944 34.7622 19.5083 34.7202 19.5221 34.6922C19.7164 33.8389 20.2991 32.4819 21.9641 31.6145Z" fill="#FDB657"/>
<path d="M12.2514 27.4455H16.1781C20.4099 27.4455 23.4624 24.004 23.9758 19.2895C24.5724 13.9315 20.2712 10.6859 15.8034 10.6859C9.24055 10.6859 4.09293 10.6719 3.06618 10.6719C2.98293 10.6719 2.92743 10.7418 2.92743 10.8118C2.92743 10.8258 2.92743 10.8398 2.92743 10.8537C3.12168 11.5532 3.8293 14.0434 4.4398 15.2325C5.7163 17.7087 7.9918 17.7926 8.1583 17.7926C5.75793 17.7926 5.34168 21.4579 5.03643 23.0387C4.68955 24.9133 3.5518 31.1247 2.91355 34.7201C2.8858 34.846 2.96905 34.9719 3.09393 34.9999C3.1078 34.9999 3.12168 34.9999 3.14943 34.9999H10.6419C10.7529 34.9999 10.8639 34.9159 10.8778 34.804L12.0988 27.5714C12.1127 27.5014 12.1821 27.4455 12.2514 27.4455Z" fill="#424242"/>
<path d="M19.9799 19.4716H18.0096L18.3288 17.5131H19.5636C19.6053 17.5131 19.6469 17.4851 19.6608 17.4291L20.077 14.967C20.0909 14.911 20.0631 14.869 20.0076 14.855H19.9938H18.8144L19.1058 13.0644C19.1196 12.9804 19.0641 12.9105 18.9809 12.8965C18.967 12.8965 18.967 12.8965 18.9531 12.8965H16.5111C16.4418 12.8965 16.3724 12.9524 16.3585 13.0224L16.0671 14.855H14.1385L14.4438 13.0644C14.4576 12.9804 14.4021 12.9105 14.3189 12.8965C14.305 12.8965 14.305 12.8965 14.2911 12.8965H11.863C11.7936 12.8965 11.7243 12.9524 11.7243 13.0224L11.4051 14.855H8.97701C8.92151 14.855 8.87988 14.897 8.87988 14.953C8.87988 16.184 9.75401 17.2473 10.9611 17.4571L10.6281 19.4716H8.97701C8.92151 19.4716 8.87988 19.5136 8.87988 19.5695V19.3737C8.87988 20.353 9.42101 21.2483 10.2813 21.696L9.93438 23.7804C9.92051 23.8644 9.97601 23.9343 10.0593 23.9483H10.0731H12.5013C12.5706 23.9483 12.64 23.8923 12.64 23.8224L12.9453 21.9897H14.8878L14.5964 23.7804C14.5825 23.8644 14.638 23.9343 14.7213 23.9483C14.7351 23.9483 14.7351 23.9483 14.749 23.9483H17.1216C17.191 23.9483 17.2604 23.8923 17.2743 23.8224L17.5795 21.9897H19.5775C19.6191 21.9897 19.6608 21.9618 19.6608 21.9198L20.0493 19.5835C20.0631 19.5276 20.0354 19.4856 19.9799 19.4716ZM13.3615 19.4716L13.6806 17.5131H15.6509L15.3318 19.4716H13.3615Z" fill="white"/>
<path d="M36.3522 23.6685C36.0886 24.9556 35.6307 26.1867 35.0202 27.3478L33.8408 26.5784C34.4097 25.5851 34.8259 24.5079 35.0618 23.3887L36.3522 23.6685ZM34.1322 20.4509V19.0519H35.4919C35.3393 18.6462 35.1451 18.2126 34.9231 17.8069L36.1718 17.3172C36.4077 17.8908 36.6019 18.4784 36.7684 19.038H37.9756C38.1698 18.5064 38.3502 17.9188 38.5028 17.3172L39.7793 17.7789C39.6406 18.2266 39.2659 19.1918 39.2659 19.1918H40.6396V20.4509H38.0033V21.5701H40.3621V22.8291H38.0033V27.7255H36.6158V22.8291H34.2571V21.5701H36.7546V20.4509H34.1322ZM36.6297 15.9742C36.4771 15.6245 36.2967 15.2887 36.1024 14.967L37.5732 14.7012C37.7397 15.0789 37.8784 15.4986 38.0449 15.9742H40.5147V17.3732H34.2709V15.9742H36.6297ZM40.3343 25.6271L39.1411 26.1027C38.9329 25.2494 38.6693 24.41 38.3641 23.5846L39.5434 23.2768C39.8487 24.0323 40.1123 24.8297 40.3343 25.6271ZM46.4254 16.268C45.1906 16.6737 43.9002 16.8975 42.5959 16.9675V19.0519H46.7584V20.4509H45.3709V27.7255H43.9834V20.4509H42.5959V21.7519C42.5266 24.2281 41.9854 26.1727 40.9726 27.6416L39.9458 26.5504C40.7228 25.4032 41.1529 23.8084 41.2084 21.7519V15.8064C42.7486 15.8064 44.2748 15.5266 45.7178 14.995L46.4254 16.268Z" fill="#424242"/>
<path d="M56.0558 19.4713H52.032V27.7252H50.6445V15.2744H56.0558V19.4713ZM54.6683 16.3936H52.032V16.9532H54.6683V16.3936ZM52.032 18.492H54.6683V17.9324H52.032V18.492ZM53.0033 21.4299V20.1708H59.9408V21.4299H58.9695V24.9273H60.0795V26.1863H58.9695V27.4454H57.7208V26.1863H52.8645V24.9273H53.8358V21.4299H53.0033ZM55.0845 21.4299V21.9894H57.7208V21.4299H55.0845ZM57.7208 23.5283V22.9687H55.0845V23.5283H57.7208ZM57.7208 24.9273V24.3677H55.0845V24.9273H57.7208ZM57.027 19.6112V15.2744H62.4383V26.3122C62.4383 27.2076 61.9943 27.6412 61.0924 27.6412C60.6623 27.6412 60.246 27.6133 59.8298 27.5853L59.5106 26.2982C59.8714 26.3542 60.2321 26.3822 60.5929 26.3822C60.8843 26.3822 61.0369 26.2003 61.0369 25.8646V19.6112H57.027ZM61.0508 16.3936H58.4145V16.9532H61.0508V16.3936ZM58.4145 18.492H61.0508V17.7925H58.4145V18.492Z" fill="#424242"/>
<path d="M76.5064 17.3586L76.3954 18.6317H78.5321V19.7508H76.2844L76.1734 21.0099L68.4589 21.0239L68.6392 19.7508H66.5996V18.6317H68.7641L68.9306 17.3726L76.5064 17.3586ZM76.7284 21.4156V25.9063H75.4519C76.3676 26.1861 77.2556 26.3959 78.1575 26.6477L77.6996 27.7949C76.3537 27.2913 74.9524 26.8995 73.5371 26.6337L73.8701 26.0322H71.1229L71.5669 26.6058C70.6095 27.0954 69.222 27.5011 67.4182 27.8229L66.7661 26.7037C67.89 26.5638 70.0961 26.0462 70.0961 26.0462H68.2646L68.2507 21.4296L76.7284 21.4156ZM78.3934 18.212H77.0059V16.9529L68.1259 16.9669V18.3519H66.7384V15.6938H71.8166C71.7195 15.54 71.5946 15.3021 71.4697 15.0643L72.9127 14.8125C73.0376 15.1063 73.1625 15.442 73.2874 15.8337H78.3934V18.212ZM75.3409 22.6887V22.269H69.6521V22.6887H75.3409ZM75.3409 23.9477V23.528H69.6521V23.9477H75.3409ZM75.3409 24.6472H69.6521V25.0669H75.3409V24.6472ZM71.775 20.1705L71.8582 19.6109H69.8186L69.7215 20.1705H71.775ZM71.9415 18.8975L72.0386 18.3519H70.11L70.0129 18.9115L71.9415 18.8975ZM72.9544 20.1705H75.0217L75.0911 19.6109H73.0376L72.9544 20.1705ZM73.1902 18.7716H75.1605L75.216 18.212H73.2874L73.1902 18.7716Z" fill="#424242"/>
<path d="M83.2916 23.0811C83.2639 24.3822 83.1668 25.6972 83.0003 26.9842L82.1816 26.7324C82.3759 25.4873 82.5008 24.2423 82.5285 22.9832L83.2916 23.0811ZM87.6206 21.2905C87.6206 24.4101 87.4958 26.2428 87.246 26.7744C86.9963 27.306 86.5106 27.5718 85.7891 27.5718C85.581 27.5718 85.359 27.5578 85.137 27.5438L84.8595 26.3827C85.0954 26.4247 85.3313 26.4526 85.581 26.4526C86.0805 26.4526 86.358 26.1868 86.4274 25.6692C86.4413 25.5433 86.4551 25.3894 86.4829 25.2215L85.914 25.4454C85.7891 24.62 85.6365 23.7946 85.47 22.9972L86.1083 22.8153C86.2748 23.5428 86.3996 24.2003 86.5106 24.8158C86.5384 24.2283 86.5523 22.4096 86.5523 22.4096H82.695L82.6811 15.2749H87.5513V16.534H86.025V17.3734H87.135V18.4925H86.025V19.3319H87.135V20.4511H86.025V21.2905H87.6206ZM84.4571 26.4806L83.6385 26.5925C83.6246 25.1096 83.5969 23.9625 83.5553 23.1511L84.2768 23.0671C84.3461 23.9065 84.4155 25.0397 84.4571 26.4806ZM83.9438 16.534V17.3734H84.7763V16.534H83.9438ZM83.9299 19.3319H84.7763V18.4925H83.9438L83.9299 19.3319ZM83.9299 21.2905H84.7763V20.4511H83.9438L83.9299 21.2905ZM85.6088 25.7531L84.8595 25.935C84.7624 24.8858 84.6514 23.9345 84.5126 23.1371L85.1786 22.9972C85.3451 23.8366 85.4839 24.7599 85.6088 25.7531ZM88.3699 27.7677L87.3431 26.8723C88.2173 26.005 88.8833 24.8718 89.2857 23.4588L90.4789 23.9485C90.3818 24.2283 90.2846 24.4801 90.2014 24.7319C90.5483 25.0537 90.8813 25.4034 91.1865 25.7671L90.3124 26.6625C90.132 26.3827 89.9239 26.1169 89.7019 25.8791C89.355 26.5506 88.8972 27.1941 88.3699 27.7677ZM88.1063 19.0941L87.3431 17.9889C88.7306 17.2894 89.8962 16.2682 90.7287 14.9951H91.8803C92.5047 16.0863 93.5869 17.0516 95.127 17.891L94.4055 18.9962C94.0448 18.7863 93.6979 18.5905 93.3927 18.3666V18.9122H89.0914V18.4925C88.7723 18.7024 88.4393 18.9122 88.1063 19.0941ZM91.1588 19.6117V23.3889H88.1063V19.6117H91.1588ZM90.0488 20.7309H89.2163V22.2697H90.0488V20.7309ZM91.2004 16.2262C90.8258 16.7858 90.4095 17.3174 89.9378 17.793H92.5185C92.019 17.3314 91.575 16.7998 91.2004 16.2262ZM91.5612 27.7537L90.5483 26.8443C91.4224 26.005 92.0745 24.8858 92.4908 23.4868L93.684 23.9765C93.573 24.2842 93.4759 24.578 93.3788 24.8438C93.9893 25.4454 94.5582 26.0889 95.0715 26.7884L94.1558 27.7257C93.7673 27.1101 93.3372 26.5226 92.8515 25.977C92.5185 26.6345 92.0884 27.2221 91.5612 27.7537ZM94.4888 19.6117V23.3889H91.4363V19.6117H94.4888ZM93.3788 20.591H92.5463V22.2697H93.3788V20.591Z" fill="#424242"/>
<path d="M98.9279 18.9124V15.9746H104.131C103.951 15.6668 103.743 15.331 103.507 15.0093L105.13 14.7295C105.324 15.1212 105.699 16.1285 105.699 16.1285L110.86 16.1145V18.9124H109.612V19.6119H107.683C108.557 20.3813 109.362 21.2347 110.111 22.158L109.071 23.3471C108.835 22.9694 108.571 22.6057 108.28 22.2559C107.433 22.3399 106.587 22.4098 105.713 22.4797V23.3891H109.875V24.788H105.713V26.0471L110.985 26.0331V27.3062L98.9141 27.3202V26.0471H104.187V24.788H100.024V23.3891H104.187V22.3119C102.979 22.3818 101.758 22.4518 100.496 22.5077L100.163 21.2627C100.274 21.2347 100.371 21.1927 100.468 21.1367C100.898 20.9269 101.453 20.4093 102.133 19.6119H100.177V18.9124H98.9279ZM109.473 17.3735L100.454 17.3875V18.3528L109.473 18.3388V17.3735ZM102.48 21.2347C104.062 21.1647 105.643 21.0668 107.211 20.9409L106.379 20.1994L106.948 19.6259H103.784C103.396 20.1854 102.952 20.731 102.48 21.2347Z" fill="#424242"/>
</g>
<defs>
<clipPath id="clip0">
<rect width="111" height="27" fill="white" transform="translate(0 8)"/>
</clipPath>
</defs>
</svg>
