<svg width="30" height="30" viewBox="0 0 30 30" fill="none" xmlns="http://www.w3.org/2000/svg">
<path d="M29.8284 0H0.171647C0.0762873 0 0 0.0761905 0 0.171429V24.0571C0 24.1429 0.0572155 24.2095 0.143039 24.2286C0.600763 24.3143 2.0979 24.581 4.03369 24.9238C4.65353 21.5429 5.29243 18.0381 5.55944 16.6571C5.8932 14.8857 6.36999 10.7619 9.09727 10.7619C8.91608 10.7619 6.31278 10.6762 4.87285 7.90476C4.18627 6.57143 3.37572 3.7619 3.15639 2.98095C3.15639 2.9619 3.14685 2.95238 3.14685 2.93333C3.14685 2.84762 3.22314 2.77143 3.30896 2.77143C4.47235 2.77143 10.3179 2.78095 17.7559 2.78095C22.8195 2.78095 27.7018 6.42857 27.0343 12.4476C26.4431 17.7524 22.9911 21.619 18.185 21.619H13.7317C13.6554 21.619 13.5887 21.6762 13.5696 21.7524L12.7591 26.4952C14.2467 26.7619 15.4577 26.9905 16.0871 27.1143C17.651 27.4191 20.8932 28.0381 21.7705 29.8952C21.8086 29.981 21.9135 30.019 21.9994 29.981C22.047 29.9619 22.0852 29.9143 22.0947 29.8667C22.314 28.9333 22.972 27.419 24.8506 26.4381C26.2428 25.7143 29.2276 24.8667 29.8665 24.6857C29.9428 24.6667 29.9905 24.6 29.9905 24.5238V0.171429C30 0.0761905 29.9237 0 29.8284 0Z" fill="#F2F2F2"/>
<path d="M22.6097 12.7238H20.3783L20.7407 10.4952H22.1329C22.1806 10.4952 22.2283 10.4571 22.2378 10.4095L22.7051 7.65714C22.7146 7.6 22.6669 7.54285 22.6097 7.53333H22.6002H21.2366L21.5608 5.58095C21.5799 5.49523 21.5131 5.40952 21.4273 5.39047C21.4177 5.39047 21.4082 5.39047 21.3987 5.39047H18.7095C18.6333 5.39047 18.557 5.44762 18.5474 5.52381L18.2137 7.53333H15.9537L16.2779 5.58095C16.297 5.49523 16.2302 5.40952 16.1444 5.39047C16.1348 5.39047 16.1253 5.39047 16.1158 5.39047H13.4457C13.379 5.39047 13.3122 5.43809 13.3027 5.51428L12.9689 7.53333H10.2226C10.1654 7.53333 10.1177 7.58095 10.1177 7.63809C10.1177 9.02857 11.1189 10.2095 12.4826 10.4571L12.1011 12.7238H10.2226C10.1654 12.7238 10.1177 12.7714 10.1177 12.8286C10.1177 13.8952 10.7184 14.8762 11.6625 15.3714L11.2811 17.6381C11.2715 17.7238 11.3287 17.8095 11.4146 17.8286C11.4241 17.8286 11.4336 17.8286 11.4432 17.8286H14.1323C14.2086 17.8286 14.2753 17.7714 14.2944 17.6952L14.6282 15.6857H16.8786L16.5449 17.6476C16.5258 17.7333 16.5926 17.8191 16.6784 17.8381C16.6879 17.8381 16.6975 17.8381 16.707 17.8381H19.3961C19.4724 17.8381 19.5392 17.781 19.5582 17.7048L19.892 15.6952H22.152C22.1997 15.6952 22.2474 15.6571 22.2569 15.6095L22.7242 12.8571C22.7337 12.8 22.686 12.7429 22.6288 12.7333C22.6193 12.7238 22.6193 12.7238 22.6097 12.7238ZM15.105 12.7238L15.4673 10.4952H17.7369L17.3745 12.7238H15.105Z" fill="#F2F2F2"/>
</svg>
