<svg width="81" height="35" viewBox="0 0 81 35" fill="none" xmlns="http://www.w3.org/2000/svg">
<g clip-path="url(#clip0)">
<path d="M0.729741 9.75125C1.68643 11.039 4.28317 12.9247 5.69543 12.2808C6.37879 11.9589 7.33548 10.2112 4.64763 9.38331C3.73649 9.10736 3.37204 8.55545 2.73424 7.81958C2.23312 7.22168 1.32198 7.22168 0.775298 7.77359C0.228616 8.2795 0.183059 9.15335 0.729741 9.75125Z" fill="#EAA14D"/>
<path d="M27.4264 11.2688C28.0642 11.1308 28.5198 10.4869 28.3831 9.84306C28.2464 9.15317 27.7909 8.78524 26.9709 8.87722C25.4219 9.0152 24.5108 9.10718 22.5974 9.75107C21.914 9.98103 21.8229 10.7629 22.1418 11.3608C22.4607 11.9587 22.7796 12.1427 23.6908 11.9127C23.6908 11.9127 26.1964 11.4528 27.4264 11.2688Z" fill="#EAA14D"/>
<path d="M19.6818 1.10478C18.6795 1.5647 17.2217 4.27823 17.085 4.60018C16.9484 4.96812 16.3106 6.16391 16.8117 6.85379C17.085 7.22173 17.6773 7.72764 18.634 7.26772C19.5907 6.8078 19.2262 4.96812 21.1852 3.26641C21.7318 2.80649 21.8685 2.07061 21.504 1.51871C21.1852 1.15077 20.5929 0.69085 19.6818 1.10478Z" fill="#EAA14D"/>
<path d="M7.19896 2.07021C7.56341 4.59978 8.47455 6.57744 8.79344 7.08335C9.24901 7.77323 9.88681 8.60109 10.8435 8.23315C12.028 7.81923 11.8002 6.71541 11.3446 5.79557C10.7524 4.36982 10.1146 2.7141 10.0235 1.28834C9.93236 0.506478 9.20346 -0.0914192 8.42899 0.000565045C6.8345 0.184534 7.19896 2.07021 7.19896 2.07021Z" fill="#EAA14D"/>
<path d="M6.15017 16.6963L0 25.5728L7.79021 30.9538L5.96794 20.4217C5.6946 19.1339 5.78571 17.8461 6.15017 16.6963Z" fill="#1F4A91"/>
<path d="M21.5486 11.5901C21.1386 10.9002 21.2753 9.52041 22.0953 9.24445C22.2775 9.19846 22.5053 9.10648 22.6875 9.06048L19.6808 7.03683C19.453 7.35878 19.0886 7.72671 18.8152 7.91068C17.5396 8.69255 16.4007 7.68072 16.0818 7.2208C15.7174 6.66889 16.0363 5.28913 16.264 4.69123L15.0796 3.81738L9.02051 12.5559C9.9772 11.82 11.1617 11.3141 12.4373 11.0841C16.8107 10.3023 20.9564 13.2458 21.7309 17.661C22.0042 19.1328 21.822 20.5585 21.3664 21.8463L27.7899 12.6019L26.7877 11.912C25.4665 12.142 24.1454 12.3719 24.1454 12.3719C22.5509 12.8318 21.9131 12.2799 21.5486 11.5901Z" fill="#1F4A91"/>
<path d="M10.2041 26.2159L11.4797 33.5287L12.6642 34.3565L18.9966 25.2041C17.9488 26.078 16.6732 26.7218 15.2154 26.9978C13.4386 27.2737 11.7075 26.9978 10.2041 26.2159Z" fill="#1F4A91"/>
<path d="M14.6693 23.779C17.266 23.3191 19.0427 20.7895 18.5872 18.1679C18.1316 15.5464 15.626 13.7527 13.0292 14.2126C10.4325 14.6725 8.65578 17.2021 9.11135 19.8237C9.56691 22.4912 12.027 24.2389 14.6693 23.779Z" fill="#D82628"/>
<path fill-rule="evenodd" clip-rule="evenodd" d="M77.8571 30.5396C78.2671 30.3096 78.586 29.9417 78.7682 29.3898L81.0005 21.6631H79.9982H78.8593H76.8548H75.7614H74.6225L73.028 27.0442C73.8936 27.3201 74.3036 28.194 74.0303 29.2058C73.8025 29.8957 73.3014 30.5396 72.6636 30.9535L71.9802 32.3793C71.8891 32.6092 71.6613 32.7932 71.388 32.7932C71.388 32.7932 70.8413 32.6552 70.7046 33.713C70.568 34.6329 71.3424 34.4949 71.3424 34.4949H71.9802C72.7091 34.4949 73.2558 34.1729 73.6203 33.4831L75.0325 30.8155H75.5792L74.8959 33.1611C74.6681 33.989 74.9414 34.4489 75.807 34.4949H77.6748C77.6748 34.4949 78.176 34.5409 78.4493 33.5291C78.7226 32.5172 78.176 32.6552 78.176 32.6552H77.5382C77.3104 32.6552 77.2648 32.5632 77.3104 32.3333L77.8571 30.5396ZM76.5815 23.5028H78.4037L78.0848 24.4226H76.3081L76.5815 23.5028ZM76.627 28.7459C76.5815 28.9298 76.4448 29.0218 76.2626 29.0218H74.7592L75.0325 28.102H76.8093L76.627 28.7459ZM75.3514 26.7222L75.6703 25.8024H77.6293L77.3104 26.7222H75.3514Z" fill="#1F4A91"/>
<path fill-rule="evenodd" clip-rule="evenodd" d="M69.519 29.4351C69.7923 28.5613 70.5212 27.7794 71.3413 27.4114C72.2524 26.4456 72.9358 25.6178 73.3913 24.8819C73.528 24.5599 73.5735 24.238 73.528 23.962C73.4369 23.7321 73.2091 23.5941 72.8446 23.5481H71.888L72.1613 22.6743C72.2524 22.4443 72.2068 22.2603 72.0246 22.1224C71.8424 22.0304 71.6146 21.9844 71.3868 21.9844C71.1135 21.9844 70.8401 22.0304 70.5668 22.1683C70.3846 22.2603 70.2479 22.4443 70.1112 22.6743L69.8379 23.5481H68.9723C68.699 23.5941 68.5167 23.6861 68.3345 23.8241C68.1523 24.008 68.0612 24.238 67.9701 24.422C67.9245 24.6059 67.9245 24.8359 67.9701 24.9739C68.0612 25.1118 68.1979 25.2038 68.4712 25.3418H71.1135C71.2046 25.2038 69.2001 27.4114 67.2412 28.6072C66.6034 28.8372 66.3756 29.2511 66.5578 29.849C66.6034 30.033 66.74 30.217 66.9223 30.309C67.0589 30.4009 67.2412 30.4009 67.5601 30.309C67.8334 30.125 68.1067 29.941 68.3345 29.803L67.1045 33.9883C67.0589 34.1723 67.1045 34.3563 67.2412 34.4482C67.3778 34.5402 67.5601 34.5862 67.8334 34.5862C68.1067 34.5862 68.3345 34.5402 68.5623 34.4482C68.8356 34.3563 68.9723 34.1723 69.0179 33.9883L69.7923 31.2748C69.519 30.8609 69.2912 30.171 69.519 29.4351Z" fill="#1F4A91"/>
<path d="M71.2505 31.045C72.1617 31.0909 73.1639 30.4011 73.4373 29.4812C73.7562 28.6074 73.255 27.8255 72.2983 27.7795C71.3872 27.7335 70.3849 28.4234 70.1116 29.3432C69.8383 30.2631 70.3394 30.999 71.2505 31.045Z" fill="#D82628"/>
<path d="M41.2293 25.3436H39.8171C39.5893 25.2976 39.4526 25.2056 39.3615 25.0677C39.2704 24.8377 39.2704 24.6077 39.3159 24.3778C39.3615 24.1478 39.4982 23.9179 39.6348 23.7799C39.8171 23.5499 40.0448 23.4579 40.2726 23.4579H41.6849L42.0038 22.3081C42.0949 22.0322 42.2316 21.8482 42.4138 21.7102C42.6416 21.6183 42.8694 21.5723 43.1427 21.5723C43.416 21.5723 43.5983 21.6183 43.7349 21.7102C43.9172 21.8482 43.9627 22.0322 43.8716 22.3081L43.5527 23.4579H46.7417L47.0606 22.3081C47.1517 22.0322 47.2884 21.8482 47.4706 21.7102C47.6984 21.6183 47.9262 21.5723 48.1995 21.5723C48.4729 21.5723 48.6551 21.6183 48.7917 21.7102C48.974 21.8482 49.0195 22.0322 48.9284 22.3081L48.6095 23.4579H50.0673C50.2496 23.5039 50.3862 23.5959 50.4774 23.7339C50.5685 23.9639 50.5685 24.1938 50.5229 24.4238C50.4774 24.6537 50.3407 24.8377 50.204 25.0677C50.0218 25.2516 49.8396 25.3436 49.6118 25.3436H48.154L47.2884 28.5631H49.4751C49.6573 28.6091 49.794 28.701 49.8851 28.839C49.9762 29.069 49.9762 29.2989 49.9307 29.5289C49.8851 29.7589 49.7484 29.9428 49.6118 30.1728C49.4295 30.3568 49.2473 30.4487 49.0195 30.4487H37.8126C37.5848 30.4027 37.4481 30.3108 37.357 30.1728C37.2659 29.9428 37.2659 29.7129 37.3114 29.4829C37.357 29.2529 37.4937 29.023 37.6303 28.885C37.8126 28.655 38.0403 28.5631 38.2681 28.5631H40.3637L41.2293 25.3436ZM45.4661 28.5631L46.3317 25.3436H43.1427L42.2771 28.5631H45.4661ZM40.7737 30.9087C41.0471 30.8627 41.366 30.9087 41.6393 30.9087C42.0038 30.9547 42.186 31.0006 42.2771 31.1386C42.4138 31.2766 42.3682 31.4146 42.186 31.5526C40.8193 32.6104 39.7259 33.5302 38.177 34.2661C37.9037 34.4041 37.6303 34.4501 37.3114 34.4041C37.0836 34.3581 36.537 34.2201 36.4003 34.1281C36.2181 33.9901 36.127 33.8522 36.127 33.6682C36.127 33.5762 36.4458 33.3462 37.1292 33.0243C38.177 32.5184 39.1337 31.8745 40.0448 31.1846C40.2726 31.0006 40.5004 30.9087 40.7737 30.9087ZM44.1905 32.0585C43.9627 31.9665 43.9172 31.8285 44.0083 31.6445C44.0994 31.5066 44.2816 31.3686 44.555 31.2306C44.7372 31.1386 45.0105 31.0926 45.3294 31.0466C45.6483 31.0006 45.8761 31.0926 46.1039 31.2306C47.1061 31.8745 48.154 32.7024 49.1562 33.7142C49.2929 33.8522 49.2929 33.9901 49.2018 34.1281C48.974 34.2661 48.7462 34.3581 48.5184 34.4041C48.1995 34.496 47.9262 34.542 47.6528 34.496C47.3795 34.4501 47.1517 34.3581 46.9695 34.2201C45.8306 33.3003 44.965 32.5644 44.1905 32.0585Z" fill="#1F4A91"/>
<path d="M55.2146 25.3428H57.1279C57.1735 25.5727 57.2646 25.6187 57.3557 25.6187C57.3557 25.7107 57.3557 25.8027 57.3102 25.8947C57.3102 25.9867 57.2646 26.0327 57.1735 26.1246C57.0824 26.2166 56.9913 26.2626 56.9002 26.2166H54.9868C54.8957 26.2166 54.8045 26.1706 54.7134 26.1246C54.7134 26.0327 54.7134 25.9407 54.759 25.8487C54.759 25.7567 54.8045 25.7107 54.8501 25.6187C54.9868 25.5727 55.1234 25.5727 55.2146 25.3428ZM54.8501 26.7225H56.809C56.8546 26.8605 56.9457 26.9065 57.0368 26.9525C57.0368 27.0445 57.0368 27.1365 56.9913 27.2285C56.9913 27.3204 56.9457 27.3664 56.8546 27.4584C56.7635 27.5504 56.6724 27.5964 56.5813 27.6424H54.6679C54.5768 27.5964 54.4856 27.5504 54.3945 27.4584C54.3945 27.3664 54.3945 27.2744 54.4401 27.1825C54.4401 27.0905 54.4856 27.0445 54.5768 26.9525C54.6223 26.9065 54.7134 26.8605 54.8501 26.7225Z" fill="#1F4A91"/>
<path d="M60.5898 25.3428H62.5032C62.5488 25.5727 62.6399 25.6187 62.731 25.6187C62.731 25.7107 62.731 25.8027 62.6855 25.8947C62.6855 25.9867 62.6399 26.0327 62.5488 26.1246C62.4577 26.2166 62.3666 26.2626 62.2754 26.2166H60.3621C60.2709 26.2166 60.1798 26.1706 60.0887 26.1246C60.0887 26.0327 60.0887 25.9407 60.1343 25.8487C60.1343 25.7567 60.1798 25.7107 60.2254 25.6187C60.3621 25.5727 60.4532 25.5727 60.5898 25.3428ZM60.1798 26.7225H62.1388C62.1843 26.8605 62.2754 26.9065 62.3666 26.9525C62.3666 27.0445 62.3666 27.1365 62.321 27.2285C62.321 27.3204 62.2754 27.3664 62.1843 27.4584C62.0932 27.5504 62.0021 27.5964 61.911 27.6424H59.9521C59.8609 27.5964 59.7698 27.5504 59.6787 27.4584C59.6787 27.3664 59.6787 27.2744 59.7243 27.1825C59.7243 27.0905 59.7698 27.0445 59.8154 26.9525C59.9521 26.9065 60.0432 26.8605 60.1798 26.7225Z" fill="#1F4A91"/>
<path d="M63.6882 32.1039C63.7793 31.8279 63.7338 31.6899 63.6427 31.506C63.5971 31.368 63.3238 31.322 63.1415 31.322C63.0049 31.322 62.8226 31.414 62.7771 31.414L63.6427 28.1025H52.8457L51.8434 31.9659C51.7068 32.4258 51.7068 32.7477 51.7979 32.8857C51.889 33.0237 52.1168 33.1157 52.4812 33.1617H55.9436L55.8069 33.6216C55.6702 34.0815 55.7158 34.4035 55.9436 34.6794C56.0802 34.9094 56.3536 35.0014 56.7636 35.0014C58.4036 35.0014 59.9526 35.0014 61.6382 35.0014C61.7748 35.0014 61.9115 35.0014 62.0937 35.0014C62.3215 34.9554 62.5037 34.9094 62.7315 34.6334C63.0504 34.3115 63.3693 33.3916 63.6882 32.1039ZM56.7636 29.9422H54.0757L54.2579 29.4823H56.9458L56.7636 29.9422ZM56.308 31.7819H53.6201L53.8024 31.322H56.4902L56.308 31.7819ZM58.7681 29.4823H61.4559L61.2737 29.9422H58.5859L58.7681 29.4823ZM58.3125 31.322H61.0004L60.8181 31.7819H58.1303L58.3125 31.322ZM61.5015 33.6216H57.7658C57.5836 33.6216 57.6747 33.2996 57.7203 33.1617H60.8637C61.3193 33.1617 61.9115 33.2077 62.0937 32.9777C62.1393 32.9777 62.0482 33.6216 61.5015 33.6216Z" fill="#1F4A91"/>
<path d="M60.363 23.5028H65.0553C65.4198 23.5028 65.8298 23.1809 65.9209 22.8129C66.012 22.445 65.7842 22.123 65.4198 22.123H54.2128C53.8484 22.123 53.4384 22.445 53.3472 22.8129C53.165 23.5028 53.8939 23.5028 53.8939 23.5028H58.5407L58.404 23.9627H53.3017L52.5272 26.9062H52.4361V26.6303C52.345 27.0442 52.5728 27.3661 52.9372 27.3661C53.3472 27.3661 53.7573 27.0442 53.8484 26.6303L54.3039 24.8826H57.584L57.0829 26.7223C56.9462 27.1822 57.2196 27.5501 57.6751 27.5501C58.1307 27.5501 58.5863 27.1822 58.7229 26.7223L59.2241 24.8826H63.4609L62.9597 26.7223C62.8686 27.1362 63.0964 27.5041 63.5064 27.5041C63.9164 27.5041 64.3264 27.1822 64.4631 26.7223H64.5542L65.2831 23.9627H60.2263L60.363 23.5028Z" fill="#1F4A91"/>
<path d="M35.6253 26.2623C35.5797 26.2623 35.1697 26.2623 35.1697 26.2623C35.033 26.2623 34.9419 26.1244 34.8964 25.8944L34.213 22.123H27.1973C26.7872 22.123 26.3317 22.537 26.195 23.0429C26.0583 23.5488 26.2861 23.9627 26.6961 23.9627H32.3907L32.9374 27.0902C33.0741 27.7341 33.393 28.102 33.8941 28.148H35.0786C35.4886 28.148 35.9442 27.7341 36.0808 27.2282C36.2175 26.6763 36.0353 26.2623 35.6253 26.2623Z" fill="#1F4A91"/>
<path d="M25.1475 28.1023C25.6486 28.1023 26.1042 27.7803 26.5598 27.1364L28.0631 24.8828H26.2864L25.4208 25.8027C25.2842 26.0326 24.6464 26.2626 24.6464 26.2626H24.373C23.963 26.2626 23.5075 26.6765 23.3708 27.1824C23.2341 27.6883 23.4619 28.1023 23.8719 28.1023H25.1475Z" fill="#1F4A91"/>
<path d="M33.7115 32.8385L32.937 29.941H32.7092C32.6181 29.4351 32.1625 29.1131 31.6159 29.1131C31.0236 29.1131 30.5225 29.3891 30.2947 29.987L30.9781 32.1486C30.9781 32.5166 30.8414 32.7005 30.5225 32.7005H24.7368L30.568 26.7215H30.4769C30.4769 26.7215 30.3403 26.3076 29.7936 26.3076C29.2469 26.3076 28.1991 27.1815 28.1991 27.1815L22.2312 33.1604L21.8667 34.5402H24.099H32.2081C33.3015 34.5402 33.8026 33.9883 33.7115 32.8385Z" fill="#1F4A91"/>
</g>
<defs>
<clipPath id="clip0">
<rect width="81" height="35" fill="white"/>
</clipPath>
</defs>
</svg>
