<svg width="32" height="31" viewBox="0 0 32 31" fill="none" xmlns="http://www.w3.org/2000/svg">
<path d="M32 13.2403C32 5.89607 24.7742 0 16 0C7.22581 0 0 5.89607 0 13.2403C0 20.5845 5.67742 25.2393 13.4194 26.2737C13.9355 26.3772 14.6581 26.584 14.8645 27.1012C14.9677 27.6184 14.9677 28.0322 14.8645 28.5494L14.6581 29.8941C14.5548 30.3079 14.3484 31.5492 16 30.7216C17.6516 29.8941 25.1871 25.2393 28.5935 21.3086C30.7613 19.1364 31.8968 16.3435 32 13.2403ZM10.3226 17.0676C10.3226 17.2745 10.2194 17.3779 10.0129 17.3779H5.36774V17.171V10.0337C5.36774 9.82679 5.47097 9.72334 5.67742 9.72334H6.70968C6.91613 9.72334 7.01935 9.82679 7.01935 10.0337V15.6194H10.1161C10.3226 15.6194 10.4258 15.7229 10.4258 15.9297L10.3226 17.0676ZM13.0065 17.0676C13.0065 17.2745 12.9032 17.3779 12.6968 17.3779H11.6645C11.4581 17.3779 11.3548 17.2745 11.3548 17.0676V10.0337C11.3548 9.82679 11.4581 9.72334 11.6645 9.72334H12.8C13.0065 9.72334 13.1097 9.82679 13.1097 10.0337L13.0065 17.0676ZM20.7484 17.0676C20.7484 17.2745 20.6452 17.3779 20.4387 17.3779H19.0968L15.8968 12.93V17.171C15.8968 17.3779 15.7935 17.4813 15.5871 17.4813H14.4516C14.2452 17.4813 14.1419 17.3779 14.1419 17.171V10.0337C14.1419 9.82679 14.2452 9.72334 14.4516 9.72334H15.7935L18.9935 14.0678V10.0337C18.9935 9.82679 19.0968 9.72334 19.3032 9.72334H20.4387C20.6452 9.72334 20.7484 9.82679 20.7484 10.0337V17.0676ZM26.9419 11.0681C26.9419 11.2749 26.8387 11.3784 26.6323 11.3784H23.5355V12.6197H26.6323C26.8387 12.6197 26.9419 12.7231 26.9419 12.93V14.0678C26.9419 14.2747 26.8387 14.3781 26.6323 14.3781H23.5355V15.6194H26.6323C26.8387 15.6194 26.9419 15.7229 26.9419 15.9297V17.0676C26.9419 17.2745 26.8387 17.3779 26.6323 17.3779H21.9871V17.171V10.0337V9.82679H26.7355C26.9419 9.82679 27.0452 9.93023 27.0452 10.1371L26.9419 11.0681Z" fill="#F2F2F2"/>
</svg>
